<svg xmlns="http://www.w3.org/2000/svg" viewBox="0 0 682.57 254.39"><g id="Calque_2" data-name="Calque 2"><g id="Layer_1" data-name="Layer 1"><path d="M112.53,231.58,91.53,175H21.63l-21,56.58a18.11,18.11,0,0,0,17.48,22.81H95.05A18.1,18.1,0,0,0,112.53,231.58Zm-56.67,7.36a24.25,24.25,0,1,1,24.25-24.25A24.28,24.28,0,0,1,55.86,238.94Z" style="fill:#e62258"/><path d="M55.86,200.61a14.08,14.08,0,1,0,14.08,14.08A14.1,14.1,0,0,0,55.86,200.61Z" style="fill:#e62258"/><path d="M100.32,38.14,81.34,148l0,.1v.1a8.22,8.22,0,0,1-8.18,7H39.27a8.22,8.22,0,0,1-8.18-7v-.1l0-.1-19-109.88h88.24M112.4,28H0L21,149.75a18.44,18.44,0,0,0,18.23,15.66H73.13a18.44,18.44,0,0,0,18.23-15.66L112.4,28Z" style="fill:#e62258"/><path d="M89,4.46C69.13-.7,55.86,0,55.86,0S42.59-.7,22.69,4.46,0,22.15,0,22.15H111.72S108.93,9.62,89,4.46Z" style="fill:#e62258"/><path d="M96.61,139.54H88.29V129.37h8.32a17.16,17.16,0,0,0,16.51-12.23l.16-.43,19.24-47.4a17.25,17.25,0,0,0-14.39-22l-14.27-1.82,1.29-10.09,14.26,1.82a27.43,27.43,0,0,1,22.78,35.21l-.15.43-19.26,47.42A27.28,27.28,0,0,1,96.61,139.54Z" style="fill:#e62258"/><path d="M268,30.19l-20.6,69.5h-12.9l-14.6-52.6-15.5,52.6-12.8.1-19.7-69.6H184l14.4,56.6L214,30.19h12.8l14.5,56.3,14.5-56.3Z" style="fill:#e94a7e"/><path d="M287.24,97a25.46,25.46,0,0,1-9.9-10,30.16,30.16,0,0,1-3.6-15,29.57,29.57,0,0,1,3.7-14.9,25.56,25.56,0,0,1,10.1-10,31,31,0,0,1,28.6,0,25.69,25.69,0,0,1,10.1,10,29.67,29.67,0,0,1,3.7,14.9,29,29,0,0,1-3.8,14.9A26.31,26.31,0,0,1,315.79,97a29.82,29.82,0,0,1-14.45,3.55A28.18,28.18,0,0,1,287.24,97Zm22.35-8.45a16,16,0,0,0,6.25-6.3,20.25,20.25,0,0,0,2.4-10.2,20.72,20.72,0,0,0-2.3-10.15,15.63,15.63,0,0,0-6.1-6.25,16.71,16.71,0,0,0-8.2-2.1,16.39,16.39,0,0,0-8.15,2.1,15,15,0,0,0-5.95,6.25,21.42,21.42,0,0,0-2.2,10.15q0,8.91,4.55,13.75a15,15,0,0,0,11.45,4.85A17,17,0,0,0,309.59,88.59Z" style="fill:#e94a7e"/><path d="M419.59,46.39a19.56,19.56,0,0,1,8.1,8,26,26,0,0,1,2.95,12.8v32.5h-11.3V68.89q0-7.39-3.7-11.35t-10.1-3.95q-6.41,0-10.15,3.95t-3.75,11.35v30.8h-11.3V68.89q0-7.39-3.7-11.35t-10.1-3.95q-6.41,0-10.15,3.95t-3.75,11.35v30.8h-11.4V44.59h11.4v6.3a19,19,0,0,1,7.1-5.3,22.58,22.58,0,0,1,9.2-1.9,24.58,24.58,0,0,1,11.8,2.8,19.23,19.23,0,0,1,8,8.1,18.44,18.44,0,0,1,7.8-8,23.12,23.12,0,0,1,11.4-3A24.74,24.74,0,0,1,419.59,46.39Z" style="fill:#e94a7e"/><path d="M444.79,57.19a25.14,25.14,0,0,1,22.55-13.5,24.08,24.08,0,0,1,11.35,2.55,23.17,23.17,0,0,1,7.75,6.35v-8h11.5v55.1h-11.5v-8.2a22.7,22.7,0,0,1-7.9,6.5,25.57,25.57,0,0,1-24.4-1,25.79,25.79,0,0,1-9.35-10.2,31.34,31.34,0,0,1-3.45-14.85A30.51,30.51,0,0,1,444.79,57.19Zm39.3,5a16.57,16.57,0,0,0-6.15-6.4,16.18,16.18,0,0,0-8.2-2.2,16.39,16.39,0,0,0-8.2,2.15,16.21,16.21,0,0,0-6.15,6.3A19.64,19.64,0,0,0,453,71.89a20.47,20.47,0,0,0,2.35,10,16.49,16.49,0,0,0,6.2,6.55,15.88,15.88,0,0,0,8.15,2.25,16.08,16.08,0,0,0,8.2-2.2A16.37,16.37,0,0,0,484.09,82a20.3,20.3,0,0,0,2.35-10A20,20,0,0,0,484.09,62.19Z" style="fill:#e94a7e"/><path d="M552.39,46.39a19.28,19.28,0,0,1,8.05,8,26.37,26.37,0,0,1,2.9,12.8v32.5H552V68.89q0-7.39-3.69-11.35t-10.1-3.95q-6.4,0-10.15,3.95t-3.75,11.35v30.8h-11.4V44.59h11.4v6.3a18.92,18.92,0,0,1,7.15-5.3,23,23,0,0,1,9.25-1.9A24.74,24.74,0,0,1,552.39,46.39Z" style="fill:#e94a7e"/><path d="M604.43,35.19a7.06,7.06,0,0,1-2.1-5.2,7.17,7.17,0,0,1,7.3-7.3,6.94,6.94,0,0,1,5.1,2.1,7.07,7.07,0,0,1,2.1,5.2,7.06,7.06,0,0,1-2.1,5.2,6.94,6.94,0,0,1-5.1,2.1A7.07,7.07,0,0,1,604.43,35.19Zm10.8,9.4v55.1h-11.4V44.59Z" style="fill:#e94a7e"/><path d="M669.68,46.39a19.16,19.16,0,0,1,8.05,8,26.37,26.37,0,0,1,2.9,12.8v32.5h-11.3V68.89q0-7.39-3.7-11.35t-10.1-3.95q-6.39,0-10.15,3.95t-3.75,11.35v30.8h-11.4V44.59h11.4v6.3a19,19,0,0,1,7.15-5.3,23,23,0,0,1,9.25-1.9A24.68,24.68,0,0,1,669.68,46.39Z" style="fill:#e94a7e"/><path d="M225.85,219.69,197.77,182.8v36.89H177.42V136.15h20.35v36.66l27.84-36.66h23.92l-32.37,40.94,33.56,42.6Z" style="fill:#e94a7e"/><path d="M280.71,136.15v83.54H260.36V136.15Z" style="fill:#e94a7e"/><path d="M355.56,136.15v16.31H333.42v67.23H313.08V152.46H290.94V136.15Z" style="fill:#e94a7e"/><path d="M367.7,155.73a38.27,38.27,0,0,1,14.93-15.11,43.36,43.36,0,0,1,21.72-5.42q14.86,0,25.46,7.86A37.68,37.68,0,0,1,444,164.48H421.6a18.11,18.11,0,0,0-7.08-8,19.92,19.92,0,0,0-10.41-2.73,19.42,19.42,0,0,0-15.23,6.54q-5.83,6.56-5.83,17.5t5.83,17.49a19.42,19.42,0,0,0,15.23,6.54,19.92,19.92,0,0,0,10.41-2.73,18.05,18.05,0,0,0,7.08-8H444a37.4,37.4,0,0,1-14.16,21.36q-10.59,7.8-25.46,7.8a43.25,43.25,0,0,1-21.72-5.42,38.31,38.31,0,0,1-14.93-15.05,48,48,0,0,1,0-44.09Z" style="fill:#e94a7e"/><path d="M528.82,136.15v83.54H508.47V185.3H476.82v34.39H456.47V136.15h20.35v32.73h31.65V136.15Z" style="fill:#e94a7e"/><path d="M563.8,152.46v16.9h27.26v15.7H563.8v18.33h30.83v16.3H543.46V136.15h51.17v16.31Z" style="fill:#e94a7e"/><path d="M682.57,219.69H662.22l-34-51.52v51.52H607.83V136.15h20.35l34,51.77V136.15h20.35Z" style="fill:#e94a7e"/></g></g></svg>