<?xml version="1.0" encoding="utf-8"?>
<!-- Generator: Adobe Illustrator 26.1.0, SVG Export Plug-In . SVG Version: 6.00 Build 0)  -->
<svg version="1.1" id="Calque_1" xmlns="http://www.w3.org/2000/svg" xmlns:xlink="http://www.w3.org/1999/xlink" x="0px" y="0px"
	 viewBox="0 0 850 254.4" style="enable-background:new 0 0 850 254.4;" xml:space="preserve">
<style type="text/css">
	.st0{fill:#E62258;}
</style>
<g id="Calque_2_00000098179203351222024220000007137580928684814783_">
	<g id="Layer_1">
		<path class="st0" d="M112.5,231.6l-21-56.6H21.6l-21,56.6c-2.6,9.7,3.1,19.6,12.8,22.2c1.5,0.4,3.1,0.6,4.7,0.6h76.9
			c10,0,18.1-8.1,18.1-18.1C113.2,234.7,112.9,233.1,112.5,231.6z M55.9,238.9c-13.4,0-24.2-10.9-24.2-24.2s10.9-24.2,24.2-24.2
			s24.2,10.9,24.2,24.2C80.1,228.1,69.2,238.9,55.9,238.9z"/>
		<path class="st0" d="M55.9,200.6c-7.8,0-14.1,6.3-14.1,14.1s6.3,14.1,14.1,14.1s14.1-6.3,14.1-14.1
			C69.9,206.9,63.6,200.6,55.9,200.6z"/>
		<path class="st0" d="M100.3,38.1L81.3,148v0.1v0.1c-0.6,4-4.1,7-8.2,7H39.3c-4.1,0-7.6-3-8.2-7v-0.1V148l-19-109.9L100.3,38.1
			 M112.4,28H0l21,121.8c1.4,9,9.1,15.7,18.2,15.7h33.9c9.1,0,16.9-6.7,18.2-15.7L112.4,28z"/>
		<path class="st0" d="M89,4.5C69.1-0.7,55.9,0,55.9,0S42.6-0.7,22.7,4.5S0,22.1,0,22.1h111.7C111.7,22.1,108.9,9.6,89,4.5z"/>
		<path class="st0" d="M96.6,139.5h-8.3v-10.2h8.3c7.6,0,14.3-4.9,16.5-12.2l0.2-0.4l19.2-47.4c2.7-9.1-2.5-18.7-11.7-21.4
			c-0.9-0.3-1.8-0.5-2.7-0.6l-14.3-1.8l1.3-10.1l14.3,1.8c15,1.9,25.7,15.6,23.8,30.7c-0.2,1.5-0.5,3.1-1,4.5l-0.1,0.4l-19.3,47.4
			C119.2,131.8,108.6,139.6,96.6,139.5z"/>
	</g>
</g>
<g>
	<path class="st0" d="M211.9,75.6c25,0,43.9,14.1,49.9,36.9h-28.2c-4.4-9-12.3-13.5-22-13.5c-15.7,0-26.5,11.7-26.5,30.3
		c0,18.6,10.8,30.3,26.5,30.3c9.7,0,17.7-4.5,22-13.5h28.2c-6,22.8-24.9,36.7-49.9,36.7c-31,0-52.9-22-52.9-53.5
		C158.9,97.8,180.8,75.6,211.9,75.6z"/>
	<path class="st0" d="M315.7,183.3c-24.6,0-43.2-16.5-43.2-43c0-26.5,19-43,43.5-43c24.6,0,43.5,16.5,43.5,43
		C359.5,166.8,340.3,183.3,315.7,183.3z M315.7,161.1c9.1,0,17.7-6.8,17.7-20.8c0-14.2-8.4-20.8-17.4-20.8
		c-9.3,0-17.4,6.6-17.4,20.8C298.6,154.3,306.4,161.1,315.7,161.1z"/>
	<path class="st0" d="M411.2,183.3c-24.6,0-43.2-16.5-43.2-43c0-26.5,19-43,43.5-43c24.6,0,43.5,16.5,43.5,43
		C455,166.8,435.8,183.3,411.2,183.3z M411.2,161.1c9.1,0,17.7-6.8,17.7-20.8c0-14.2-8.4-20.8-17.4-20.8c-9.3,0-17.4,6.6-17.4,20.8
		C394.1,154.3,401.9,161.1,411.2,161.1z"/>
	<path class="st0" d="M468.7,71.1h25.6v61.3l25.3-34h31.6l-34.8,42l35.1,41.7h-31.8L494.3,147v35.1h-25.6V71.1z"/>
	<path class="st0" d="M559.4,117l7.8-40.2h26.2L576.7,117H559.4z"/>
	<path class="st0" d="M608.5,77.2c0-5.2,4-9.3,9.3-9.3c4.9,0,9,4,9,9.3s-4,9.3-9,9.3C612.5,86.5,608.5,82.5,608.5,77.2z M610.7,99.9
		h13.6v82.2h-13.6V99.9z"/>
	<path class="st0" d="M707.8,135.6c0-16.8-9.1-25.3-22.9-25.3c-13.9,0-23.5,8.7-23.5,26.4v45.4h-13.6V99.9h13.6v11.7
		c5.4-8.5,15.3-13.2,26.4-13.2c19,0,33.6,11.7,33.6,35.2v48.4h-13.5V135.6z"/>
	<path class="st0" d="M803.8,135.6c0-16.8-9.1-25.3-22.9-25.3c-13.9,0-23.5,8.7-23.5,26.4v45.4h-13.6V99.9h13.6v11.7
		c5.4-8.5,15.3-13.2,26.4-13.2c19,0,33.6,11.7,33.6,35.2v48.4h-13.5V135.6z"/>
</g>
</svg>
